{
  "accessors": [
    {
      "bufferView": 2,
      "componentType": 5126,
      "count": 65532,
      "max": [
        2.5152220726013184,
        5.211631774902344,
        0.49030500650405884
      ],
      "min": [
        -1.0110269784927368,
        3.4307100772857666,
        -1.3681639432907104
      ],
      "type": "VEC3"
    },
    {
      "bufferView": 2,
      "byteOffset": 786384,
      "componentType": 5126,
      "count": 65532,
      "max": [
        0.9999836683273315,
        0.9998937845230103,
        0.9999961256980896
      ],
      "min": [
        -0.999995231628418,
        -0.9999490976333618,
        -0.9999897480010986
      ],
      "type": "VEC3"
    },
    {
      "bufferView": 1,
      "componentType": 5126,
      "count": 65532,
      "max": [
        0.9898639917373657,
        0.9992790222167969
      ],
      "min": [
        0.005386000033468008,
        0.0036230001132935286
      ],
      "type": "VEC2"
    },
    {
      "bufferView": 0,
      "componentType": 5125,
      "count": 346275,
      "type": "SCALAR"
    },
    {
      "bufferView": 2,
      "byteOffset": 1572768,
      "componentType": 5126,
      "count": 65532,
      "max": [
        2.500886917114258,
        5.202420234680176,
        0.5475640296936035
      ],
      "min": [
        -1.0028170347213745,
        3.4432098865509033,
        -1.253074049949646
      ],
      "type": "VEC3"
    },
    {
      "bufferView": 2,
      "byteOffset": 2359152,
      "componentType": 5126,
      "count": 65532,
      "max": [
        0.9996921420097351,
        0.999952495098114,
        0.9999537467956543
      ],
      "min": [
        -0.9998296499252319,
        -0.9999850988388062,
        -0.9990927577018738
      ],
      "type": "VEC3"
    },
    {
      "bufferView": 1,
      "byteOffset": 524256,
      "componentType": 5126,
      "count": 65532,
      "max": [
        0.9651020169258118,
        0.998682975769043
      ],
      "min": [
        0.006881999783217907,
        0.009832999669015408
      ],
      "type": "VEC2"
    },
    {
      "bufferView": 0,
      "byteOffset": 1385100,
      "componentType": 5125,
      "count": 333147,
      "type": "SCALAR"
    },
    {
      "bufferView": 2,
      "byteOffset": 3145536,
      "componentType": 5126,
      "count": 65532,
      "max": [
        2.511522054672241,
        5.188973903656006,
        0.4878610074520111
      ],
      "min": [
        -1.4750070571899414,
        3.386082887649536,
        -1.3656270503997803
      ],
      "type": "VEC3"
    },
    {
      "bufferView": 2,
      "byteOffset": 3931920,
      "componentType": 5126,
      "count": 65532,
      "max": [
        0.9968239068984985,
        0.999997615814209,
        0.9998558759689331
      ],
      "min": [
        -0.9998961091041565,
        -0.9999678730964661,
        -0.9999935030937195
      ],
      "type": "VEC3"
    },
    {
      "bufferView": 1,
      "byteOffset": 1048512,
      "componentType": 5126,
      "count": 65532,
      "max": [
        0.9908739924430847,
        0.9993780255317688
      ],
      "min": [
        0.0033859999384731054,
        0.005369000136852264
      ],
      "type": "VEC2"
    },
    {
      "bufferView": 0,
      "byteOffset": 2717688,
      "componentType": 5125,
      "count": 321231,
      "type": "SCALAR"
    },
    {
      "bufferView": 2,
      "byteOffset": 4718304,
      "componentType": 5126,
      "count": 65534,
      "max": [
        2.477509021759033,
        5.191387176513672,
        0.37518998980522156
      ],
      "min": [
        -1.4463789463043213,
        3.4233009815216064,
        -1.3681639432907104
      ],
      "type": "VEC3"
    },
    {
      "bufferView": 2,
      "byteOffset": 5504712,
      "componentType": 5126,
      "count": 65534,
      "max": [
        0.9992143511772156,
        0.9999426603317261,
        0.9926637411117554
      ],
      "min": [
        -0.9897374510765076,
        -0.9934743642807007,
        -0.9999502301216125
      ],
      "type": "VEC3"
    },
    {
      "bufferView": 1,
      "byteOffset": 1572768,
      "componentType": 5126,
      "count": 65534,
      "max": [
        0.9960970282554626,
        0.9995160102844238
      ],
      "min": [
        0.0038449999410659075,
        0.003513999981805682
      ],
      "type": "VEC2"
    },
    {
      "bufferView": 0,
      "byteOffset": 4002612,
      "componentType": 5125,
      "count": 322950,
      "type": "SCALAR"
    },
    {
      "bufferView": 2,
      "byteOffset": 6291120,
      "componentType": 5126,
      "count": 22732,
      "max": [
        2.495151996612549,
        5.205208778381348,
        0.3875240087509155
      ],
      "min": [
        -1.4693559408187866,
        3.3865909576416016,
        -1.3371930122375488
      ],
      "type": "VEC3"
    },
    {
      "bufferView": 2,
      "byteOffset": 6563904,
      "componentType": 5126,
      "count": 22732,
      "max": [
        0.9801786541938782,
        0.999896764755249,
        0.9993905425071716
      ],
      "min": [
        -0.9989702105522156,
        -0.9997616410255432,
        -0.9999397397041321
      ],
      "type": "VEC3"
    },
    {
      "bufferView": 1,
      "byteOffset": 2097040,
      "componentType": 5126,
      "count": 22732,
      "max": [
        0.9907940030097961,
        0.9994029998779297
      ],
      "min": [
        0.012908999808132648,
        0.0034809999633580446
      ],
      "type": "VEC2"
    },
    {
      "bufferView": 0,
      "byteOffset": 5294412,
      "componentType": 5125,
      "count": 83433,
      "type": "SCALAR"
    }
  ],
  "asset": {
    "extras": {
      "author": "Hamza.Bangash (https://sketchfab.com/Hamza.Bangash)",
      "license": "CC-BY-4.0 (http://creativecommons.org/licenses/by/4.0/)",
      "source": "https://sketchfab.com/3d-models/buddha-meditating-7b36b2bda34c46b980cc73ad2419d91b",
      "title": "Buddha Meditating"
    },
    "generator": "Sketchfab-12.68.0",
    "version": "2.0"
  },
  "bufferViews": [
    {
      "buffer": 0,
      "byteLength": 5628144,
      "name": "floatBufferViews",
      "target": 34963
    },
    {
      "buffer": 0,
      "byteLength": 2278896,
      "byteOffset": 5628144,
      "byteStride": 8,
      "name": "floatBufferViews",
      "target": 34962
    },
    {
      "buffer": 0,
      "byteLength": 6836688,
      "byteOffset": 7907040,
      "byteStride": 12,
      "name": "floatBufferViews",
      "target": 34962
    }
  ],
  "buffers": [
    {
      "byteLength": 14743728,
      "uri": "scene.bin"
    }
  ],
  "images": [
    {
      "uri": "textures/buddhaPreaching_baseColor.jpeg"
    }
  ],
  "materials": [
    {
      "doubleSided": true,
      "name": "buddhaPreaching",
      "pbrMetallicRoughness": {
        "baseColorTexture": {
          "index": 0
        },
        "metallicFactor": 0.0
      }
    }
  ],
  "meshes": [
    {
      "name": "Object_0",
      "primitives": [
        {
          "attributes": {
            "NORMAL": 1,
            "POSITION": 0,
            "TEXCOORD_0": 2
          },
          "indices": 3,
          "material": 0,
          "mode": 4
        }
      ]
    },
    {
      "name": "Object_1",
      "primitives": [
        {
          "attributes": {
            "NORMAL": 5,
            "POSITION": 4,
            "TEXCOORD_0": 6
          },
          "indices": 7,
          "material": 0,
          "mode": 4
        }
      ]
    },
    {
      "name": "Object_2",
      "primitives": [
        {
          "attributes": {
            "NORMAL": 9,
            "POSITION": 8,
            "TEXCOORD_0": 10
          },
          "indices": 11,
          "material": 0,
          "mode": 4
        }
      ]
    },
    {
      "name": "Object_3",
      "primitives": [
        {
          "attributes": {
            "NORMAL": 13,
            "POSITION": 12,
            "TEXCOORD_0": 14
          },
          "indices": 15,
          "material": 0,
          "mode": 4
        }
      ]
    },
    {
      "name": "Object_4",
      "primitives": [
        {
          "attributes": {
            "NORMAL": 17,
            "POSITION": 16,
            "TEXCOORD_0": 18
          },
          "indices": 19,
          "material": 0,
          "mode": 4
        }
      ]
    }
  ],
  "nodes": [
    {
      "children": [
        1
      ],
      "matrix": [
        -0.033520430907576504,
        -1.109186511108355,
        0.17194818652771257,
        0.0,
        0.7908128175906768,
        -0.14541610277302813,
        -0.7838709464707492,
        0.0,
        0.7965399365633203,
        0.09769317348159827,
        0.7854709602500662,
        0.0,
        -2.200741767883301,
        0.695824444293976,
        -1.0906643867492674,
        1.0
      ],
      "name": "Sketchfab_model"
    },
    {
      "children": [
        2,
        3,
        4,
        5,
        6
      ],
      "name": "buddhaPreaching.obj.cleaner.materialmerger.gles"
    },
    {
      "mesh": 0,
      "name": "Object_2"
    },
    {
      "mesh": 1,
      "name": "Object_3"
    },
    {
      "mesh": 2,
      "name": "Object_4"
    },
    {
      "mesh": 3,
      "name": "Object_5"
    },
    {
      "mesh": 4,
      "name": "Object_6"
    }
  ],
  "samplers": [
    {
      "magFilter": 9729,
      "minFilter": 9987,
      "wrapS": 10497,
      "wrapT": 10497
    }
  ],
  "scene": 0,
  "scenes": [
    {
      "name": "Sketchfab_Scene",
      "nodes": [
        0
      ]
    }
  ],
  "textures": [
    {
      "sampler": 0,
      "source": 0
    }
  ]
}
